<?xml version="1.0" encoding="UTF-8"?>
<svg xmlns="http://www.w3.org/2000/svg" width="220.08" height="155.91" viewBox="0 0 220.08 155.91"><path d="M219.86 69.27l-4.74-24.41a11.66 11.66 0 0 0-13.68-9.23l-2.11.41v-24.3A11.81 11.81 0 0 0 187.51-.05H32.57a11.81 11.81 0 0 0-11.82 11.74v59L9.44 72.95A11.68 11.68 0 0 0 .21 86.63l4.74 24.41a11.66 11.66 0 0 0 13.68 9.23l2.11-.41v24.31a11.81 11.81 0 0 0 11.83 11.78h154.94a11.81 11.81 0 0 0 11.82-11.74v-59l11.3-2.2a11.67 11.67 0 0 0 9.23-13.68z" fill="#fff"/><path d="M20.75 119.86l20.64-4c3.83 15.18 8.94 29.09 19 40.06H32.57a11.81 11.81 0 0 1-11.82-11.74zM199.33 11.74A11.81 11.81 0 0 0 187.51-.05h-31.47c7.46 7.46 13.75 17.12 18.5 29.13l-47.9 10.11c-5.25-10.06-13.23-18.43-28.84-15.14-8.61 1.82-14.32 6.65-16.85 11.94-2.14 4.5-3.54 9.37-1.75 23.36l120.17-23.36zM101.04 130.1c4.47 3.79 11.68 5.91 20.29 4.09 15.62-3.29 19.47-14.16 20.15-25.47l47.9-10.12c1.13 24.78-6.54 44-20.08 57.29h18.22a11.81 11.81 0 0 0 11.82-11.74v-59l-110.3 21.43c4.5 15.85 7.95 20.06 12 23.52zm-61.18-115A76.8 76.8 0 0 1 52.65-.05H32.57a11.81 11.81 0 0 0-11.82 11.74v59l10.77-2.09c-2.91-18.82-2.64-36.65 8.35-53.5zm174.11 55.31L209.23 46a5.67 5.67 0 0 0-6.65-4.48l-192 37.32a5.67 5.67 0 0 0-4.48 6.65l4.74 24.41a5.67 5.67 0 0 0 6.65 4.48l192-37.32a5.67 5.67 0 0 0 4.48-6.65z" fill="#f47c00"/><path d="M36.29 102.76a7.31 7.31 0 0 1-5.69-1.12 5.78 5.78 0 0 1-2.17-2.63 36.77 36.77 0 0 1-1.89-9.73 5.67 5.67 0 0 1 1-3.25 7.31 7.31 0 0 1 4.86-3.17 7 7 0 0 1 8.4 4.79l-3.87.75a3.28 3.28 0 0 0-3.84-2.13 3.08 3.08 0 0 0-2.25 1.49c-.63 1-.63 1.92.11 5.71s1.07 4.64 2 5.34a3.08 3.08 0 0 0 2.64.54 3.28 3.28 0 0 0 2.76-3.42l3.88-.75a7 7 0 0 1-5.94 7.58zm22.42-6.58a7.74 7.74 0 0 1-10.58 2.06c-2.36-1.59-2.78-4.05-3.44-7.43s-1.19-5.82.41-8.18a7.74 7.74 0 0 1 10.58-2.06c2.36 1.59 2.81 4 3.47 7.43s1.16 5.82-.44 8.18zm-5.42-12.75a3.24 3.24 0 0 0-2.65-.57 3.3 3.3 0 0 0-2.27 1.53c-.58 1-.6 1.91.13 5.68s1.1 4.63 2 5.31a3.3 3.3 0 0 0 2.68.56 3.23 3.23 0 0 0 2.24-1.52c.58-1 .63-1.92-.11-5.68s-1.11-4.63-2.01-5.31zm26.95 10.62l-2.2-11.41-2.29 8.15-2.58.5-5.21-6.69 2.22 11.41-3.82.74-3.8-19.57 3.77-.73 7.17 9.59 3-11.57 3.76-.73 3.8 19.57zm23.66-4.6l-2.22-11.41-2.3 8.15-2.58.5L91.59 80l2.22 11.41-3.82.74-3.8-19.57 3.76-.73 7.17 9.59 3-11.57 3.77-.73 3.8 19.57zm16.69-3.07c-4 .78-7.73-1.32-8.54-5.47l-2.5-12.86 3.82-.74 2.47 12.73c.44 2.25 2 3.34 4.08 2.94a3.32 3.32 0 0 0 2.71-4.26l-2.47-12.77 3.79-.74 2.5 12.86c.81 4.19-1.85 7.53-5.86 8.31zm24.37-4.91l-10.08-10.52 2.33 12-3.82.74-3.8-19.57 3.41-.66 10.04 10.49-2.33-12 3.82-.74 3.8 19.57zm9.35-1.82l-3.8-19.57 3.82-.74 3.8 19.57zm14.09-19.51l3.14 16.16-3.82.74-3.14-16.16-5.11 1-.66-3.41 14-2.73.66 3.41zm18.64 4.81l1.56 8-3.79.74-1.56-8-8.13-10.4 4.15-.81 5.19 7.18 2.07-8.59 4.15-.81z" fill="#fff"/></svg>