<svg width="1792.0000000000002" height="1792.0000000000002" xmlns="http://www.w3.org/2000/svg">

 <g>
  <title>background</title>
  <rect fill="none" id="canvas_background" height="402" width="582" y="-1" x="-1"/>
 </g>
 <g>
  <title>Layer 1</title>
  <path fill="#f47c00" id="svg_1" d="m138,128l197,0q-70,64 -126,149q-36,56 -59,115t-30,125.5t-8.5,120t10.5,132t21,126t28,136.5q4,19 6,28q51,238 81,329q57,171 152,275l-272,0q-48,0 -82,-34t-34,-82l0,-1304q0,-48 34,-82t82,-34zm1208,0l308,0q48,0 82,34t34,82l0,1304q0,48 -34,82t-82,34l-178,0q212,-210 196,-565l-469,101q-2,45 -12,82t-31,72t-59.5,59.5t-93.5,36.5q-123,26 -199,-40q-32,-27 -53,-61t-51.5,-129t-64.5,-258q-35,-163 -45.5,-263t-5.5,-139t23,-77q20,-41 62.5,-73t102.5,-45q45,-12 83.5,-6.5t67,17t54,35t43,48t34.5,56.5l468,-100q-68,-175 -180,-287z"/>
 </g>
</svg>